<svg width="18" height="18" viewBox="0 0 18 18" fill="none" xmlns="http://www.w3.org/2000/svg">
<g clip-path="url(#clip0_1055_1688)">
<path d="M12.75 8.25V3.75C12.75 2.925 12.075 2.25 11.25 2.25H6.75C5.925 2.25 5.25 2.925 5.25 3.75V5.25H3.75C2.925 5.25 2.25 5.925 2.25 6.75V14.25C2.25 15.075 2.925 15.75 3.75 15.75H7.5C7.9125 15.75 8.25 15.4125 8.25 15V12.75H9.75V15C9.75 15.4125 10.0875 15.75 10.5 15.75H14.25C15.075 15.75 15.75 15.075 15.75 14.25V9.75C15.75 8.925 15.075 8.25 14.25 8.25H12.75ZM5.25 14.25H3.75V12.75H5.25V14.25ZM5.25 11.25H3.75V9.75H5.25V11.25ZM5.25 8.25H3.75V6.75H5.25V8.25ZM8.25 11.25H6.75V9.75H8.25V11.25ZM8.25 8.25H6.75V6.75H8.25V8.25ZM8.25 5.25H6.75V3.75H8.25V5.25ZM11.25 11.25H9.75V9.75H11.25V11.25ZM11.25 8.25H9.75V6.75H11.25V8.25ZM11.25 5.25H9.75V3.75H11.25V5.25ZM14.25 14.25H12.75V12.75H14.25V14.25ZM14.25 11.25H12.75V9.75H14.25V11.25Z" fill="black"/>
</g>
<defs>
<clipPath id="clip0_1055_1688">
<rect width="18" height="18" fill="white"/>
</clipPath>
</defs>
</svg>
