<svg width="48" height="48" viewBox="0 0 48 48" fill="none" xmlns="http://www.w3.org/2000/svg">
<path d="M43.15 18.05C43.4167 18.9833 43.625 19.95 43.775 20.95C43.925 21.95 44 22.9667 44 24C44 26.8333 43.4833 29.4667 42.45 31.9C41.4167 34.3333 40 36.45 38.2 38.25C36.4 40.05 34.2833 41.4583 31.85 42.475C29.4167 43.4917 26.8 44 24 44C21.1667 44 18.5333 43.4917 16.1 42.475C13.6667 41.4583 11.55 40.05 9.75 38.25C7.95 36.45 6.54167 34.3333 5.525 31.9C4.50833 29.4667 4 26.8333 4 24C4 21.2 4.50833 18.5833 5.525 16.15C6.54167 13.7167 7.95 11.6 9.75 9.8C11.55 8 13.6667 6.58333 16.1 5.55C18.5333 4.51667 21.1667 4 24 4C26.1667 4 28.2083 4.31667 30.125 4.95C32.0417 5.58333 33.8333 6.43333 35.5 7.5C35.8667 7.73333 36.075 8.05 36.125 8.45C36.175 8.85 36.0667 9.21667 35.8 9.55C35.5333 9.88333 35.2 10.0833 34.8 10.15C34.4 10.2167 34.0167 10.1333 33.65 9.9C32.25 9.03333 30.7417 8.33333 29.125 7.8C27.5083 7.26667 25.8 7 24 7C19.1667 7 15.125 8.625 11.875 11.875C8.625 15.125 7 19.1667 7 24C7 28.8333 8.625 32.875 11.875 36.125C15.125 39.375 19.1667 41 24 41C28.8333 41 32.875 39.375 36.125 36.125C39.375 32.875 41 28.8333 41 24C41 23.1667 40.95 22.3667 40.85 21.6C40.75 20.8333 40.6 20.0667 40.4 19.3C40.3 18.9 40.325 18.5 40.475 18.1C40.625 17.7 40.8833 17.4167 41.25 17.25C41.6167 17.0833 41.9917 17.0667 42.375 17.2C42.7583 17.3333 43.0167 17.6167 43.15 18.05ZM20 32.05L13.9 25.9C13.6 25.6 13.45 25.2333 13.45 24.8C13.45 24.3667 13.6167 23.9833 13.95 23.65C14.25 23.35 14.6167 23.2 15.05 23.2C15.4833 23.2 15.8667 23.35 16.2 23.65L21.05 28.55L40.65 8.95C40.95 8.65 41.3167 8.49167 41.75 8.475C42.1833 8.45833 42.5667 8.61667 42.9 8.95C43.2333 9.28333 43.4 9.66667 43.4 10.1C43.4 10.5333 43.2333 10.9167 42.9 11.25L22.1 32.05C21.8 32.35 21.4417 32.5 21.025 32.5C20.6083 32.5 20.2667 32.35 20 32.05Z" fill="#FFDC00"/>
</svg>
