<svg width="30" height="30" viewBox="0 0 30 30" fill="none" xmlns="http://www.w3.org/2000/svg">
<g clip-path="url(#clip0_1026_1437)">
<path d="M23.6229 7.39003C23.12 6.88718 22.3077 6.88718 21.8049 7.39003L15.5 13.682L9.19511 7.37713C8.69226 6.87429 7.87998 6.87429 7.37713 7.37713C6.87429 7.87998 6.87429 8.69226 7.37713 9.19511L13.682 15.5L7.37713 21.8049C6.87429 22.3077 6.87429 23.12 7.37713 23.6229C7.87998 24.1257 8.69226 24.1257 9.19511 23.6229L15.5 17.318L21.8049 23.6229C22.3077 24.1257 23.12 24.1257 23.6229 23.6229C24.1257 23.12 24.1257 22.3077 23.6229 21.8049L17.318 15.5L23.6229 9.19511C24.1128 8.70516 24.1128 7.87998 23.6229 7.39003Z" fill="black"/>
</g>
<defs>
<clipPath id="clip0_1026_1437">
<rect width="30" height="30" fill="white"/>
</clipPath>
</defs>
</svg>
