<svg width="18" height="18" viewBox="0 0 18 18" fill="none" xmlns="http://www.w3.org/2000/svg">
<g clip-path="url(#clip0_1055_1705)">
<path d="M9 9.5625C10.2225 9.5625 11.3025 9.855 12.18 10.2375C12.99 10.5975 13.5 11.4075 13.5 12.285V12.75C13.5 13.1625 13.1625 13.5 12.75 13.5H5.25C4.8375 13.5 4.5 13.1625 4.5 12.75V12.2925C4.5 11.4075 5.01 10.5975 5.82 10.245C6.6975 9.855 7.7775 9.5625 9 9.5625ZM3 9.75C3.825 9.75 4.5 9.075 4.5 8.25C4.5 7.425 3.825 6.75 3 6.75C2.175 6.75 1.5 7.425 1.5 8.25C1.5 9.075 2.175 9.75 3 9.75ZM3.8475 10.575C3.57 10.53 3.2925 10.5 3 10.5C2.2575 10.5 1.5525 10.6575 0.915 10.935C0.36 11.175 0 11.715 0 12.3225V12.75C0 13.1625 0.3375 13.5 0.75 13.5H3.375V12.2925C3.375 11.67 3.5475 11.085 3.8475 10.575ZM15 9.75C15.825 9.75 16.5 9.075 16.5 8.25C16.5 7.425 15.825 6.75 15 6.75C14.175 6.75 13.5 7.425 13.5 8.25C13.5 9.075 14.175 9.75 15 9.75ZM18 12.3225C18 11.715 17.64 11.175 17.085 10.935C16.4475 10.6575 15.7425 10.5 15 10.5C14.7075 10.5 14.43 10.53 14.1525 10.575C14.4525 11.085 14.625 11.67 14.625 12.2925V13.5H17.25C17.6625 13.5 18 13.1625 18 12.75V12.3225ZM9 4.5C10.245 4.5 11.25 5.505 11.25 6.75C11.25 7.995 10.245 9 9 9C7.755 9 6.75 7.995 6.75 6.75C6.75 5.505 7.755 4.5 9 4.5Z" fill="black"/>
</g>
<defs>
<clipPath id="clip0_1055_1705">
<rect width="18" height="18" fill="white"/>
</clipPath>
</defs>
</svg>
